<?xml version="1.0" standalone="no"?>
<!DOCTYPE svg PUBLIC "-//W3C//DTD SVG 20010904//EN"
 "http://www.w3.org/TR/2001/REC-SVG-20010904/DTD/svg10.dtd">
<svg version="1.0" xmlns="http://www.w3.org/2000/svg"
 width="50.000000pt" height="50.000000pt" viewBox="0 0 50.000000 50.000000"
 preserveAspectRatio="xMidYMid meet">

<g transform="translate(0.000000,50.000000) scale(0.100000,-0.100000)"
fill="#000000" stroke="none">
<path d="M189 451 c-24 -24 -29 -38 -29 -76 0 -35 -7 -57 -31 -91 -69 -101
-81 -195 -17 -137 17 15 18 15 18 -8 0 -14 7 -34 15 -46 8 -12 12 -29 9 -38
-13 -34 46 -47 78 -18 17 15 19 15 36 0 32 -29 91 -16 78 18 -3 9 1 26 9 38 8
12 15 32 15 46 0 23 1 23 18 8 58 -52 53 22 -8 122 -30 51 -40 78 -40 110 0
54 -42 101 -90 101 -22 0 -41 -9 -61 -29z m41 -76 c0 -8 -4 -15 -10 -15 -5 0
-10 7 -10 15 0 8 5 15 10 15 6 0 10 -7 10 -15z m60 0 c0 -8 -4 -15 -10 -15 -5
0 -10 7 -10 15 0 8 5 15 10 15 6 0 10 -7 10 -15z m-20 -35 c13 -9 13 -11 0
-20 -8 -5 -17 -10 -20 -10 -3 0 -12 5 -20 10 -13 9 -13 11 0 20 8 5 17 10 20
10 3 0 12 -5 20 -10z m20 -100 c21 -11 40 -67 40 -117 0 -39 -21 -53 -80 -53
-78 0 -95 30 -70 122 15 53 62 74 110 48z"/>
</g>
</svg>
